<?xml version="1.0" standalone="no"?>
<!DOCTYPE svg PUBLIC "-//W3C//DTD SVG 20010904//EN"
 "http://www.w3.org/TR/2001/REC-SVG-20010904/DTD/svg10.dtd">
<svg version="1.0" xmlns="http://www.w3.org/2000/svg"
 width="768.000000pt" height="768.000000pt" viewBox="0 0 768.000000 768.000000"
 preserveAspectRatio="xMidYMid meet">
<metadata>
Created by potrace 1.11, written by Peter Selinger 2001-2013
</metadata>
<g transform="translate(0.000000,768.000000) scale(0.100000,-0.100000)"
fill="#000000" stroke="none">
<path d="M0 3840 l0 -3550 717 2 717 3 0 3545 0 3545 -717 3 -717 2 0 -3550z"/>
<path d="M2805 3840 l0 -3550 716 0 716 0 0 1504 c0 827 3 1508 6 1512 3 5
653 9 1477 9 900 -1 1474 3 1477 9 5 7 8 970 4 1148 l-1 37 -1476 -1 c-812 0
-1478 3 -1481 6 -3 3 -6 382 -6 843 l1 838 1721 0 1721 0 0 598 0 597 -2438 0
-2438 0 1 -3550z"/>
</g>
</svg>
